<svg width="40" height="40" viewBox="0 0 40 40" fill="none" xmlns="http://www.w3.org/2000/svg">
<g clip-path="url(#clip0_20_13)">
<path d="M16.5297 19.8296L14.8798 21.4795L19.8295 26.4293L24.7793 21.4795L23.1294 19.8296L20.996 21.9629L20.996 13.1689L18.663 13.1689L18.663 21.9629L16.5297 19.8296Z" fill="black"/>
<path fill-rule="evenodd" clip-rule="evenodd" d="M4.94973 23.0989C4.07456 22.2237 3.5829 21.0367 3.5829 19.7991C3.5829 18.5614 4.07456 17.3744 4.94973 16.4992L16.4991 4.94983C17.3743 4.07466 18.5613 3.583 19.799 3.583C21.0367 3.583 22.2236 4.07466 23.0988 4.94983L34.6482 16.4992C35.5234 17.3744 36.0151 18.5614 36.0151 19.7991C36.0151 21.0367 35.5234 22.2237 34.6482 23.0989L23.0988 34.6483C22.2236 35.5235 21.0367 36.0151 19.799 36.0151C18.5613 36.0151 17.3743 35.5235 16.4991 34.6483L4.94973 23.0989ZM6.59965 18.1492L18.1491 6.59975C18.5866 6.16216 19.1801 5.91633 19.799 5.91633C20.4178 5.91633 21.0113 6.16216 21.4489 6.59975L32.9983 18.1492C33.4359 18.5867 33.6817 19.1802 33.6817 19.7991C33.6817 20.4179 33.4359 21.0114 32.9983 21.449L21.4489 32.9984C21.0113 33.436 20.4178 33.6818 19.799 33.6818C19.1801 33.6818 18.5866 33.436 18.1491 32.9984L6.59965 21.449C6.16206 21.0114 5.91623 20.4179 5.91623 19.7991C5.91623 19.1802 6.16206 18.5867 6.59965 18.1492Z" fill="black"/>
</g>
<defs>
<clipPath id="clip0_20_13">
<rect width="28" height="28" fill="white" transform="translate(0 19.7991) rotate(-45)"/>
</clipPath>
</defs>
</svg>
