<svg width="56" height="64" viewBox="0 0 56 64" fill="none" xmlns="http://www.w3.org/2000/svg">
<g clip-path="url(#clip0_72_18)">
<path d="M37.1467 30.4C37.0943 31.0352 36.8581 31.6414 36.4668 32.1445C36.0755 32.6475 35.5461 33.0257 34.9433 33.2328C34.3405 33.4398 33.6905 33.4668 33.0726 33.3103C32.4548 33.1539 31.8959 32.8208 31.4643 32.3519C31.0327 31.8829 30.7471 31.2984 30.6423 30.6697C30.5376 30.041 30.6183 29.3955 30.8745 28.8119C31.1308 28.2283 31.5515 27.7321 32.0852 27.3838C32.619 27.0355 33.2426 26.8502 33.88 26.8507C35.7013 26.928 37.1467 28.424 37.1467 30.256L37.144 30.4053V30.3973L37.1467 30.4ZM22.2027 26.8533C21.3186 26.9356 20.497 27.3446 19.8984 28.0003C19.2997 28.656 18.9671 29.5114 18.9654 30.3993C18.9638 31.2871 19.2932 32.1437 19.8894 32.8017C20.4855 33.4597 21.3056 33.8717 22.1893 33.9573H22.2027C23.0813 33.9209 23.9119 33.5461 24.5207 32.9115C25.1295 32.2769 25.4694 31.4314 25.4693 30.552L25.4667 30.4027V30.4107L25.472 30.232C25.472 28.4053 24.0293 26.9173 22.2213 26.848H22.216L22.2027 26.8533ZM56 6.592V64C47.9386 56.8747 50.5147 59.2347 41.152 50.528L42.848 56.448H6.55731C4.81624 56.4431 3.14813 55.7481 1.9185 54.5155C0.688869 53.2829 -0.00198681 51.6131 -0.00268555 49.872V6.576C-0.00269256 4.83517 0.687571 3.16536 1.91678 1.93265C3.14598 0.699949 4.81382 0.00494154 6.55465 0L49.4373 0C51.1784 0.00494009 52.8465 0.699862 54.0761 1.93249C55.3058 3.16512 55.9966 4.83492 55.9973 6.576V6.592H56ZM46.88 36.928C46.7841 30.3497 45.1688 23.8827 42.16 18.032L42.272 18.272C39.7091 16.2485 36.5788 15.0749 33.3173 14.9147L33.28 14.912L32.832 15.424C35.8987 16.256 38.5653 17.656 40.8373 19.5173L40.8 19.488C36.8403 17.336 32.4026 16.2153 27.896 16.2293C23.9146 16.2293 20.1333 17.0853 16.7253 18.624L16.896 18.5547C15.712 19.0987 15.008 19.488 15.008 19.488C17.4277 17.5158 20.249 16.096 23.2746 15.328L23.424 15.296L23.104 14.912C19.8165 15.0704 16.661 16.2537 14.08 18.296L14.112 18.272C11.3066 23.7013 9.61598 30.104 9.50398 36.8907V36.928C10.6094 38.4786 12.0793 39.7333 13.7842 40.5816C15.4891 41.4298 17.3765 41.8455 19.28 41.792H19.264C19.264 41.792 20.448 40.352 21.408 39.136C19.1706 38.5679 17.1986 37.2432 15.8266 35.3867L15.808 35.36C16.2773 35.6907 17.056 36.1173 17.1146 36.16C20.5361 38.0394 24.379 39.0185 28.2826 39.0053C31.3577 39.0091 34.4029 38.4037 37.2426 37.224L37.088 37.28C38.496 36.7413 39.7066 36.1067 40.832 35.352L40.7653 35.3947C39.3588 37.286 37.3371 38.6278 35.048 39.1893L34.9786 39.2027C35.9386 40.4187 37.0907 41.7947 37.0907 41.7947L37.3867 41.7973C39.2355 41.7991 41.0583 41.3617 42.7051 40.5211C44.3518 39.6806 45.7754 38.461 46.8587 36.9627L46.8826 36.928H46.88Z" fill="#FF9F23"/>
</g>
<defs>
<clipPath id="clip0_72_18">
<rect width="56" height="64" fill="white"/>
</clipPath>
</defs>
</svg>
