<svg width="48" height="48" viewBox="0 0 48 48" fill="none" xmlns="http://www.w3.org/2000/svg">
<g filter="url(#filter0_di_30_13)">
<circle cx="22" cy="22" r="18" fill="#CED3D6"/>
</g>
<path d="M16.51 17.572C16.5073 17.6366 16.5178 17.7011 16.5409 17.7614C16.564 17.8218 16.5992 17.8768 16.6443 17.9231C16.6895 17.9694 16.7436 18.0059 16.8034 18.0305C16.8632 18.0551 16.9274 18.0671 16.992 18.066H18.642C18.918 18.066 19.138 17.84 19.174 17.566C19.354 16.254 20.254 15.298 21.858 15.298C23.23 15.298 24.486 15.984 24.486 17.634C24.486 18.904 23.738 19.488 22.556 20.376C21.21 21.354 20.144 22.496 20.22 24.35L20.226 24.784C20.2281 24.9152 20.2817 25.0403 20.3753 25.1324C20.4688 25.2244 20.5948 25.276 20.726 25.276H22.348C22.4806 25.276 22.6078 25.2233 22.7016 25.1296C22.7953 25.0358 22.848 24.9086 22.848 24.776V24.566C22.848 23.13 23.394 22.712 24.868 21.594C26.086 20.668 27.356 19.64 27.356 17.482C27.356 14.46 24.804 13 22.01 13C19.476 13 16.7 14.18 16.51 17.572ZM19.624 29.098C19.624 30.164 20.474 30.952 21.644 30.952C22.862 30.952 23.7 30.164 23.7 29.098C23.7 27.994 22.86 27.218 21.642 27.218C20.474 27.218 19.624 27.994 19.624 29.098Z" fill="#555555" fill-opacity="0.8"/>
<defs>
<filter id="filter0_di_30_13" x="0" y="0" width="48" height="48" filterUnits="userSpaceOnUse" color-interpolation-filters="sRGB">
<feFlood flood-opacity="0" result="BackgroundImageFix"/>
<feColorMatrix in="SourceAlpha" type="matrix" values="0 0 0 0 0 0 0 0 0 0 0 0 0 0 0 0 0 0 127 0" result="hardAlpha"/>
<feOffset dx="2" dy="2"/>
<feGaussianBlur stdDeviation="3"/>
<feComposite in2="hardAlpha" operator="out"/>
<feColorMatrix type="matrix" values="0 0 0 0 0.619608 0 0 0 0 0.639216 0 0 0 0 0.65098 0 0 0 0.4 0"/>
<feBlend mode="normal" in2="BackgroundImageFix" result="effect1_dropShadow_30_13"/>
<feBlend mode="normal" in="SourceGraphic" in2="effect1_dropShadow_30_13" result="shape"/>
<feColorMatrix in="SourceAlpha" type="matrix" values="0 0 0 0 0 0 0 0 0 0 0 0 0 0 0 0 0 0 127 0" result="hardAlpha"/>
<feMorphology radius="4" operator="erode" in="SourceAlpha" result="effect2_innerShadow_30_13"/>
<feOffset/>
<feGaussianBlur stdDeviation="2"/>
<feComposite in2="hardAlpha" operator="arithmetic" k2="-1" k3="1"/>
<feColorMatrix type="matrix" values="0 0 0 0 1 0 0 0 0 1 0 0 0 0 1 0 0 0 0.6 0"/>
<feBlend mode="normal" in2="shape" result="effect2_innerShadow_30_13"/>
</filter>
</defs>
</svg>
