<svg width="64" height="64" viewBox="0 0 64 64" fill="none" xmlns="http://www.w3.org/2000/svg">
<path fill-rule="evenodd" clip-rule="evenodd" d="M64 32C64 49.672 49.672 64 32 64C14.328 64 0 49.672 0 32C0 14.328 14.328 0 32 0C49.672 0 64 14.328 64 32ZM33.1467 23.624C30.0347 24.9173 23.8133 27.5973 14.4853 31.6613C12.9707 32.264 12.176 32.8533 12.104 33.4293C11.9813 34.4053 13.2027 34.7893 14.8613 35.3093C15.088 35.3813 15.3227 35.4533 15.5627 35.5333C17.1973 36.064 19.3947 36.6853 20.536 36.7093C21.5733 36.7307 22.7307 36.304 24.008 35.4293C32.7227 29.544 37.2213 26.5707 37.504 26.5067C37.704 26.4613 37.9813 26.4027 38.168 26.5707C38.3547 26.736 38.336 27.0507 38.3173 27.136C38.1947 27.6507 33.4107 32.1013 30.9307 34.4053C30.1573 35.1227 29.6107 35.632 29.4987 35.7493C29.248 36.008 28.992 36.256 28.7467 36.4933C27.2267 37.9547 26.0907 39.0533 28.8107 40.8453C30.1173 41.7067 31.1627 42.4187 32.2053 43.128C33.344 43.904 34.48 44.6773 35.952 45.6427C36.3253 45.888 36.6827 46.1413 37.032 46.3893C38.3573 47.336 39.5493 48.184 41.0213 48.0507C41.8747 47.9707 42.76 47.168 43.208 44.7707C44.2667 39.1013 46.352 26.824 46.8347 21.7627C46.864 21.3424 46.8461 20.9202 46.7813 20.504C46.7425 20.1678 46.5788 19.8585 46.3227 19.6373C45.9413 19.3253 45.3493 19.2587 45.0827 19.264C43.88 19.2853 42.0347 19.928 33.1467 23.624Z" fill="#FF9F23"/>
</svg>
