<svg width="64" height="64" viewBox="0 0 64 64" fill="none" xmlns="http://www.w3.org/2000/svg">
<path d="M60.8 54.4V9.59995C60.8 6.07995 57.9104 3.19995 54.384 3.19995H9.61595C5.93595 3.19995 3.19995 5.92955 3.19995 9.59995V54.4C3.19995 58.0736 5.93595 60.8 9.61595 60.8H54.384C56.082 60.7974 57.7101 60.1228 58.9123 58.9236C60.1145 57.7244 60.7932 56.098 60.8 54.4ZM48.5888 37.1424C48.5888 37.1424 52.2112 40.7168 53.104 42.3744C53.1296 42.4095 53.1391 42.4416 53.1488 42.4544C53.5103 43.0624 53.6032 43.5424 53.4208 43.8944C53.12 44.4799 52.096 44.7744 51.7472 44.8H45.3504C44.9024 44.8 43.9744 44.6847 42.848 43.9072C41.984 43.3055 41.1296 42.3104 40.2976 41.3408C39.056 39.9007 37.9808 38.6528 36.8992 38.6528C36.7619 38.6524 36.6256 38.6751 36.496 38.72C35.6735 38.9824 34.6304 40.1504 34.6304 43.2704C34.6304 44.2464 33.8624 44.8032 33.3183 44.8032H30.3872C29.3888 44.8032 24.1888 44.4544 19.584 39.5936C13.9328 33.6416 8.85755 21.7024 8.81275 21.5968C8.49275 20.8256 9.15515 20.4064 9.87515 20.4064H16.3392C17.2064 20.4064 17.4848 20.9312 17.6832 21.4016C17.9072 21.936 18.752 24.0928 20.1344 26.5184C22.384 30.464 23.7696 32.0704 24.8736 32.0704C25.08 32.0692 25.2827 32.0152 25.4624 31.9135C26.9056 31.1168 26.6368 25.9712 26.5728 24.9088C26.5728 24.7072 26.5696 22.608 25.8336 21.6C25.3024 20.8704 24.4032 20.592 23.8592 20.4864C24.081 20.1807 24.3729 19.9327 24.7104 19.7632C25.6992 19.2704 27.4816 19.2 29.2544 19.2H30.24C32.1632 19.2256 32.6624 19.3504 33.3568 19.5264C34.7616 19.8624 34.7904 20.7744 34.6656 23.8784C34.6304 24.7616 34.592 25.7632 34.592 26.9376C34.592 27.1904 34.5824 27.4688 34.5824 27.7568C34.5376 29.344 34.4864 31.1392 35.6063 31.8752C35.7513 31.9659 35.9186 32.0146 36.0896 32.016C36.4799 32.016 37.6479 32.016 40.8128 26.5856C42.2048 24.1887 43.2768 21.36 43.3504 21.1488C43.4621 20.9204 43.624 20.7202 43.824 20.5632C43.9879 20.478 44.1705 20.4351 44.3552 20.4384H51.9552C52.7872 20.4384 53.3504 20.5632 53.456 20.88C53.6384 21.3888 53.4208 22.9408 49.9488 27.632L48.4032 29.68C45.2544 33.8015 45.2544 34.0128 48.5888 37.1424Z" fill="#FF9F23"/>
</svg>
